<svg id="svg" version="1.1" xmlns="http://www.w3.org/2000/svg" style="display: block;" viewBox="0 0 52 51"><path d="M0 0 C17.16 0 34.32 0 52 0 C52 16.83 52 33.66 52 51 C34.84 51 17.68 51 0 51 C0 34.17 0 17.34 0 0 Z " transform="translate(0,0)" style="fill: #6F727A;"/><path d="M0 0 C6.6 0 13.2 0 20 0 C20 16.83 20 33.66 20 51 C12.74 51 5.48 51 -2 51 C0.13281409 49.93359296 2.26606735 48.8680479 4.40234375 47.80859375 C10.80195867 44.3474769 14.58610258 40.96842085 17 34 C17.6117929 30.94103551 17.85088965 28.13131742 18 25 C17.01 25.33 16.02 25.66 15 26 C14.64587656 27.32796291 14.31478446 28.66216607 14 30 C12.8125 31.75 12.8125 31.75 11 33 C7.8125 33.1875 7.8125 33.1875 5 33 C5 32.67 5 32.34 5 32 C6.4540625 31.5359375 6.4540625 31.5359375 7.9375 31.0625 C10.84065792 30.30476658 10.84065792 30.30476658 12 29 C12.07148199 27.64756083 12.08399454 26.29165633 12.0625 24.9375 C12.041875 23.638125 12.02125 22.33875 12 21 C9.66834966 20.66501699 9.66834966 20.66501699 7 21 C4.68622853 22.89584109 4.68622853 22.89584109 3 25 C3 24.01 3 23.02 3 22 C2.21625 21.855625 1.4325 21.71125 0.625 21.5625 C-2 21 -2 21 -4 20 C-4 19.34 -4 18.68 -4 18 C-5.65 19.32 -7.3 20.64 -9 22 C-12.96 20.35 -16.92 18.7 -21 17 C-20.34 15.35 -19.68 13.7 -19 12 C-19 10.68 -19 9.36 -19 8 C-12.40188742 8.26079496 -8.42103274 8.99314972 -3 13 C2.49823162 15.69613499 7.93098973 16.59258959 14 17 C14.495 18.98 14.495 18.98 15 21 C15.99 21 16.98 21 18 21 C16.33577498 14.56207688 14.23088654 9.31436368 9 5 C6.08648352 3.39090103 3.13159149 2.12041385 0 1 C0 0.67 0 0.34 0 0 Z " transform="translate(32,0)" style="fill: #ECECEC;"/><path d="M0 0 C0 0.99 0 1.98 0 3 C0.8971875 3.4021875 0.8971875 3.4021875 1.8125 3.8125 C4 5 4 5 5.375 6.4375 C9.90298472 10.79133146 15.02289365 11.48473221 21 12 C21 10.35 21 8.7 21 7 C21.33 7 21.66 7 22 7 C22.125 9.875 22.125 9.875 22 13 C19.75118156 15.24881844 19.06735985 15.51459288 16 16 C13.62464111 15.99441092 11.24923953 15.94812853 8.875 15.875 C1.32100914 15.75224536 -4.81256343 17.14973733 -11.6875 20.1875 C-14.85759848 21.30131839 -17.67064853 21.19207797 -21 21 C-23.10956132 18.89043868 -22.23112319 14.46716878 -22.25 11.5625 C-22.270625 10.77294922 -22.29125 9.98339844 -22.3125 9.16992188 C-22.328125 6.87890625 -22.328125 6.87890625 -22 3 C-18.59401269 0.72934179 -17.47145575 0.80405055 -13.5 0.9375 C-8.79106479 1.08307192 -4.68750125 -0.12668922 0 0 Z " transform="translate(25,24)" style="fill: #4A4B4B;"/><path d="M0 0 C5.73881993 3.32247469 9.85196276 7.85187312 12.5 13.9375 C12.625 16.6875 12.625 16.6875 12.5 18.9375 C11.51 18.9375 10.52 18.9375 9.5 18.9375 C9.005 17.4525 9.005 17.4525 8.5 15.9375 C7.2625 15.875625 6.025 15.81375 4.75 15.75 C-1.83811014 15.03777188 -9.73985012 12.69764988 -14.5 7.9375 C-16.70250992 7.47743654 -16.70250992 7.47743654 -19.125 7.3125 C-20.35089844 7.20035156 -20.35089844 7.20035156 -21.6015625 7.0859375 C-22.22804688 7.03695313 -22.85453125 6.98796875 -23.5 6.9375 C-23.65339844 7.55109375 -23.80679687 8.1646875 -23.96484375 8.796875 C-24.4765625 10.84375 -24.98828125 12.890625 -25.5 14.9375 C-24.18 15.5975 -22.86 16.2575 -21.5 16.9375 C-21.5 18.5875 -21.5 20.2375 -21.5 21.9375 C-22.16 21.9375 -22.82 21.9375 -23.5 21.9375 C-23.54125 21.36 -23.5825 20.7825 -23.625 20.1875 C-24.92750864 16.83819206 -27.54630904 15.84509208 -30.5 13.9375 C-30.83 12.9475 -31.16 11.9575 -31.5 10.9375 C-32.985 11.9275 -32.985 11.9275 -34.5 12.9375 C-33.45989835 7.48593272 -30.07620249 3.98770291 -25.81640625 0.59765625 C-18.19139646 -4.01014537 -7.93197469 -3.61851413 0 0 Z " transform="translate(37.5,2.0625)" style="fill: #5C5E62;"/><path d="M0 0 C2.4375 0.1875 2.4375 0.1875 3.4375 1.1875 C3.79840226 8.64614662 3.79840226 8.64614662 1.4375 12.1875 C3.6852975 10.13516315 4.4397242 9.18082739 5.4375 6.1875 C6.0975 5.8575 6.7575 5.5275 7.4375 5.1875 C8.0975 4.1975 8.7575 3.2075 9.4375 2.1875 C9.87945983 10.43741681 8.03827692 16.9261717 3.02734375 23.58203125 C-2.13486677 28.79497603 -8.98165311 31.25736642 -16.1875 31.5625 C-22.14984023 31.54475494 -26.52854711 29.18645066 -31.5625 26.1875 C-28.32990621 21.33860931 -23.05052612 21.32759317 -17.5625 20.1875 C-13.43329524 19.40437496 -9.62006249 19.17619007 -5.4375 19.25 C-1.68744502 19.30144892 1.06042376 18.98860733 4.4375 17.1875 C4.4375 16.8575 4.4375 16.5275 4.4375 16.1875 C2.643125 16.2803125 2.643125 16.2803125 0.8125 16.375 C-3.29747595 16.39693937 -6.0103261 15.31880434 -9.5625 13.1875 C-8.9025 11.8675 -8.2425 10.5475 -7.5625 9.1875 C-8.8825 8.8575 -10.2025 8.5275 -11.5625 8.1875 C-11.5625 7.5275 -11.5625 6.8675 -11.5625 6.1875 C-7.6875 7.0625 -7.6875 7.0625 -6.5625 8.1875 C-6.27375 7.23875 -5.985 6.29 -5.6875 5.3125 C-3.87712926 0.28369238 -3.87712926 0.28369238 0 0 Z " transform="translate(41.5625,19.8125)" style="fill: #6B6D75;"/><path d="M0 0 C0.70640625 0.09990234 1.4128125 0.19980469 2.140625 0.30273438 C3.88621607 0.55041959 5.63072084 0.80573871 7.375 1.0625 C7.05078125 2.95703125 7.05078125 2.95703125 6.375 5.0625 C0.2114417 8.76063498 -5.54367516 9.73691189 -12.625 9.0625 C-15.71065869 8.26078807 -18.66337386 7.23874868 -21.625 6.0625 C-21.625 5.0725 -21.625 4.0825 -21.625 3.0625 C-20.78195313 2.85753906 -19.93890625 2.65257812 -19.0703125 2.44140625 C-17.97460938 2.17199219 -16.87890625 1.90257812 -15.75 1.625 C-14.65945312 1.35816406 -13.56890625 1.09132812 -12.4453125 0.81640625 C-7.75543325 -0.43725953 -4.8963583 -0.72722665 0 0 Z " transform="translate(33.625,39.9375)" style="fill: #D1D4DB;"/><path d="M0 0 C0.33 0 0.66 0 1 0 C1 9.57 1 19.14 1 29 C-6.26 29 -13.52 29 -21 29 C-18.86718591 27.93359296 -16.73393265 26.8680479 -14.59765625 25.80859375 C-8.16021622 22.32701986 -4.4173837 18.99880084 -2 12 C-1.09456649 8.01896696 -0.45975674 4.05546613 0 0 Z " transform="translate(51,22)" style="fill: #EAEAEA;"/><path d="M0 0 C2.66852879 0.32206382 5.33439691 0.65526809 8 1 C9.4540625 1.185625 9.4540625 1.185625 10.9375 1.375 C14.35459725 2.07236679 17.51849643 3.15954614 20.80859375 4.30078125 C23.50741398 5.16190214 26.19322712 5.64015732 29 6 C27.02 8.31 25.04 10.62 23 13 C22.67 12.01 22.34 11.02 22 10 C21.21625 9.855625 20.4325 9.71125 19.625 9.5625 C17 9 17 9 15 8 C15 7.34 15 6.68 15 6 C13.35 7.32 11.7 8.64 10 10 C6.04 8.35 2.08 6.7 -2 5 C-1.34 3.35 -0.68 1.7 0 0 Z " transform="translate(13,12)" style="fill: #F7F7F7;"/><path d="M0 0 C3.63 0 7.26 0 11 0 C10 4 10 4 8 6 C5.8359375 6.1953125 5.8359375 6.1953125 3.375 6.125 C2.55773437 6.10695313 1.74046875 6.08890625 0.8984375 6.0703125 C0.27195312 6.04710937 -0.35453125 6.02390625 -1 6 C-1 7.65 -1 9.3 -1 11 C-0.08476562 10.83242188 0.83046875 10.66484375 1.7734375 10.4921875 C3.55621094 10.18667969 3.55621094 10.18667969 5.375 9.875 C7.15003906 9.56175781 7.15003906 9.56175781 8.9609375 9.2421875 C9.96382812 9.16226563 10.96671875 9.08234375 12 9 C12.66 9.66 13.32 10.32 14 11 C7.67162748 13.43046191 1.76215448 14.59060025 -5 15 C-5.28571429 6.42857143 -5.28571429 6.42857143 -3 3 C-2.67 3.33 -2.34 3.66 -2 4 C-1.34 2.68 -0.68 1.36 0 0 Z " transform="translate(10,28)" style="fill: #738198;"/><path d="M0 0 C0.71615479 0.01135986 1.43230957 0.02271973 2.17016602 0.03442383 C7.67498164 0.23779286 11.09556346 0.80727678 15.1875 4.5 C16.125 7.25 16.125 7.25 16.1875 9.5 C10.60012027 8.73808458 10.60012027 8.73808458 8.38671875 7.4609375 C4.54602752 5.78276691 0.49781423 6.47227108 -3.62109375 6.625 C-6.83403667 6.49915646 -8.93425338 5.87725446 -11.8125 4.5 C-8.44213946 0.11069325 -5.23223182 -0.13764286 0 0 Z " transform="translate(24.8125,1.5)" style="fill: #ECECEE;"/><path d="M0 0 C6.59811258 0.26079496 10.57896726 0.99314972 16 5 C21.49823162 7.69613499 26.93098973 8.59258959 33 9 C33.495 10.98 33.495 10.98 34 13 C34.99 13 35.98 13 37 13 C37.33 12.34 37.66 11.68 38 11 C37.67 12.98 37.34 14.96 37 17 C36.01 17.33 35.02 17.66 34 18 C33.64587656 19.32796291 33.31478446 20.66216607 33 22 C31.8125 23.75 31.8125 23.75 30 25 C26.8125 25.1875 26.8125 25.1875 24 25 C24 24.67 24 24.34 24 24 C25.4540625 23.5359375 25.4540625 23.5359375 26.9375 23.0625 C29.84065792 22.30476658 29.84065792 22.30476658 31 21 C31.07148199 19.64756083 31.08399454 18.29165633 31.0625 16.9375 C31.041875 15.638125 31.02125 14.33875 31 13 C28.95900065 12.2066145 26.9171691 11.4153697 24.875 10.625 C23.73804687 10.18414062 22.60109375 9.74328125 21.4296875 9.2890625 C15.07178676 6.79958606 15.07178676 6.79958606 8.375 6 C5.12192611 6 3.55515044 5.96550034 1 4 C0.3984375 1.921875 0.3984375 1.921875 0 0 Z " transform="translate(13,8)" style="fill: #BBBBBA;"/><path d="M0 0 C5.94 0 11.88 0 18 0 C16 2 16 2 12.75 3.625 C6.9147144 6.87765398 2.97653132 12.67509977 1 19 C0.67 19 0.34 19 0 19 C0 12.73 0 6.46 0 0 Z " transform="translate(0,0)" style="fill: #ECECEC;"/><path d="M0 0 C2.4375 0.1875 2.4375 0.1875 3.4375 1.1875 C3.91157407 8.41712963 3.91157407 8.41712963 1.9375 11.625 C1.4425 12.140625 0.9475 12.65625 0.4375 13.1875 C0.4375 13.5175 0.4375 13.8475 0.4375 14.1875 C-6.1875 14.4375 -6.1875 14.4375 -9.5625 12.1875 C-8.9025 11.8575 -8.2425 11.5275 -7.5625 11.1875 C-7.5625 10.5275 -7.5625 9.8675 -7.5625 9.1875 C-8.8825 8.8575 -10.2025 8.5275 -11.5625 8.1875 C-11.5625 7.5275 -11.5625 6.8675 -11.5625 6.1875 C-7.6875 7.0625 -7.6875 7.0625 -6.5625 8.1875 C-6.129375 6.764375 -6.129375 6.764375 -5.6875 5.3125 C-3.87712926 0.28369238 -3.87712926 0.28369238 0 0 Z " transform="translate(41.5625,19.8125)" style="fill: #888888;"/><path d="M0 0 C0.66 0 1.32 0 2 0 C2 0.66 2 1.32 2 2 C4.31 2.66 6.62 3.32 9 4 C9.33 6.64 9.66 9.28 10 12 C9.566875 11.525625 9.13375 11.05125 8.6875 10.5625 C6.97690387 8.76313043 6.97690387 8.76313043 4 8 C4 8.66 4 9.32 4 10 C4.9590625 10.1546875 4.9590625 10.1546875 5.9375 10.3125 C6.618125 10.539375 7.29875 10.76625 8 11 C8.33 11.99 8.66 12.98 9 14 C4.61999924 13.49942848 2.15830185 12.06806466 -1 9 C-1 8.01 -1 7.02 -1 6 C-3.64 6.33 -6.28 6.66 -9 7 C-9 5.35 -9 3.7 -9 2 C-7.6078125 2.3403125 -7.6078125 2.3403125 -6.1875 2.6875 C-3.03682848 3.37565048 -3.03682848 3.37565048 -1.25 1.5625 C-0.8375 1.046875 -0.425 0.53125 0 0 Z " transform="translate(26,18)" style="fill: #9A9A9A;"/><path d="M0 0 C2.02173932 3.03260897 2.29338438 4.08690037 2.5625 7.5625 C2.81460438 10.90657232 2.81460438 10.90657232 4 14 C5.62071792 14.47270939 7.2441081 14.93793016 8.87890625 15.359375 C12.73871983 16.52513822 16.35280479 18.29632151 20 20 C20 20.33 20 20.66 20 21 C13.4 21 6.8 21 0 21 C0 14.07 0 7.14 0 0 Z " transform="translate(0,30)" style="fill: #EAEAEA;"/><path d="M0 0 C0.33 0 0.66 0 1 0 C1.125 2.875 1.125 2.875 1 6 C-2.22624207 9.22624207 -5.57583658 9.15377924 -10 9.1875 C-10.845625 9.20167969 -11.69125 9.21585938 -12.5625 9.23046875 C-15.15408616 8.98543096 -16.77024992 8.30584901 -19 7 C-18.01 5.02 -17.02 3.04 -16 1 C-9.125 2.875 -9.125 2.875 -8 4 C-6.65252916 4.23075082 -5.29622435 4.41153063 -3.9375 4.5625 C-2.638125 4.706875 -1.33875 4.85125 0 5 C0 3.35 0 1.7 0 0 Z " transform="translate(46,31)" style="fill: #050505;"/><path d="M0 0 C0.70640625 0.09990234 1.4128125 0.19980469 2.140625 0.30273438 C3.88621607 0.55041959 5.63072084 0.80573871 7.375 1.0625 C7 3 7 3 6.375 5.0625 C5.385 5.5575 5.385 5.5575 4.375 6.0625 C4.375 5.4025 4.375 4.7425 4.375 4.0625 C-3.875 4.0625 -12.125 4.0625 -20.625 4.0625 C-20.955 4.7225 -21.285 5.3825 -21.625 6.0625 C-21.625 5.0725 -21.625 4.0825 -21.625 3.0625 C-20.78195313 2.85753906 -19.93890625 2.65257812 -19.0703125 2.44140625 C-17.97460938 2.17199219 -16.87890625 1.90257812 -15.75 1.625 C-14.65945312 1.35816406 -13.56890625 1.09132812 -12.4453125 0.81640625 C-7.75543325 -0.43725953 -4.8963583 -0.72722665 0 0 Z " transform="translate(33.625,39.9375)" style="fill: #ADB1BD;"/><path d="M0 0 C0.33 0 0.66 0 1 0 C1.38250931 7.14017382 0.65179451 12.9693777 -4.1875 18.5 C-4.785625 18.995 -5.38375 19.49 -6 20 C-6 19.34 -6 18.68 -6 18 C-6.99 17.67 -7.98 17.34 -9 17 C-7.35 16.34 -5.7 15.68 -4 15 C-4 14.67 -4 14.34 -4 14 C-6.64 14 -9.28 14 -12 14 C-12.33 13.34 -12.66 12.68 -13 12 C-12.071875 11.731875 -11.14375 11.46375 -10.1875 11.1875 C-7.20486385 10.07632183 -5.88134543 9.47545451 -4 7 C-3.67 6.01 -3.34 5.02 -3 4 C-2.34 3.67 -1.68 3.34 -1 3 C-0.67 2.01 -0.34 1.02 0 0 Z " transform="translate(50,22)" style="fill: #4B4C4F;"/><path d="M0 0 C1.58246707 -0.08153933 3.16616273 -0.13943557 4.75 -0.1875 C6.07257812 -0.23970703 6.07257812 -0.23970703 7.421875 -0.29296875 C10.44671583 0.05076316 11.75583602 1.00227459 14 3 C13.01 3.33 12.02 3.66 11 4 C13.96178773 5.67110042 16.37071192 6.32682752 19.75 6.625 C20.94882812 6.73714844 20.94882812 6.73714844 22.171875 6.8515625 C22.77515625 6.90054687 23.3784375 6.94953125 24 7 C24 7.99 24 8.98 24 10 C16.38445882 10.73226358 10.83923859 8.19164467 4 5 C4 4.01 4 3.02 4 2 C2.68 1.34 1.36 0.68 0 0 Z " transform="translate(21,7)" style="fill: #6A6A6B;"/><path d="M0 0 C2.4375 0.375 2.4375 0.375 5 1 C5.33 1.66 5.66 2.32 6 3 C8.34907875 3.68931344 8.34907875 3.68931344 11.0625 4.125 C11.98160156 4.29257812 12.90070312 4.46015625 13.84765625 4.6328125 C14.55792969 4.75398438 15.26820312 4.87515625 16 5 C16.33 5.99 16.66 6.98 17 8 C16.34 8 15.68 8 15 8 C15 7.34 15 6.68 15 6 C13.35 7.32 11.7 8.64 10 10 C6.04 8.35 2.08 6.7 -2 5 C-1.34 3.35 -0.68 1.7 0 0 Z " transform="translate(13,12)" style="fill: #E8E8E8;"/><path d="M0 0 C6.04801071 0.54981916 11.30601106 1.90429574 17 4 C17.33 6.31 17.66 8.62 18 11 C17.01 11 16.02 11 15 11 C14.75894531 10.37351562 14.51789062 9.74703125 14.26953125 9.1015625 C12.67088638 6.45519038 11.61993631 6.19312509 8.6875 5.375 C7.48867188 5.02115234 7.48867188 5.02115234 6.265625 4.66015625 C5.51796875 4.44230469 4.7703125 4.22445313 4 4 C2.32636023 3.35103764 0.65538958 2.69419563 -1 2 C-0.67 1.34 -0.34 0.68 0 0 Z " transform="translate(32,10)" style="fill: #393A3D;"/><path d="M0 0 C0.66 0 1.32 0 2 0 C2 4.95 2 9.9 2 15 C11.9 13.02 11.9 13.02 22 11 C21.67 11.66 21.34 12.32 21 13 C18.3125 13.81640625 18.3125 13.81640625 15 14.5625 C11.18994327 15.15573784 11.18994327 15.15573784 8 17 C4.5 17.125 4.5 17.125 1 17 C0 16 0 16 -0.09765625 12.40234375 C-0.0909822 10.91403133 -0.07902183 9.42573568 -0.0625 7.9375 C-0.05798828 7.17888672 -0.05347656 6.42027344 -0.04882812 5.63867188 C-0.0370068 3.75908129 -0.01907078 1.87953101 0 0 Z " transform="translate(3,28)" style="fill: #2D2D2F;"/><path d="M0 0 C1.478014 0.19637948 2.95721713 0.38402618 4.4375 0.5625 C5.613125 0.706875 6.78875 0.85125 8 1 C8 1.33 8 1.66 8 2 C2.555 2.495 2.555 2.495 -3 3 C-3.66 7.29 -4.32 11.58 -5 16 C-5.33 16 -5.66 16 -6 16 C-6.33 13.69 -6.66 11.38 -7 9 C-7.33 9 -7.66 9 -8 9 C-8 6.69 -8 4.38 -8 2 C-8.66 1.67 -9.32 1.34 -10 1 C-6.06375051 -1.62416633 -4.57985616 -0.8258757 0 0 Z " transform="translate(13,26)" style="fill: #565758;"/><path d="M0 0 C0.66 0.33 1.32 0.66 2 1 C2 1.99 2 2.98 2 4 C2.99 4 3.98 4 5 4 C5.33 3.34 5.66 2.68 6 2 C5.67 3.98 5.34 5.96 5 8 C4.01 8.33 3.02 8.66 2 9 C1.64587656 10.32796291 1.31478446 11.66216607 1 13 C-0.1875 14.75 -0.1875 14.75 -2 16 C-5.1875 16.1875 -5.1875 16.1875 -8 16 C-8 15.67 -8 15.34 -8 15 C-7.030625 14.690625 -6.06125 14.38125 -5.0625 14.0625 C-2.15934208 13.30476658 -2.15934208 13.30476658 -1 12 C-0.92851801 10.64756083 -0.91600546 9.29165633 -0.9375 7.9375 C-0.958125 6.638125 -0.97875 5.33875 -1 4 C-2.32 3.34 -3.64 2.68 -5 2 C-2.625 0.9375 -2.625 0.9375 0 0 Z " transform="translate(45,17)" style="fill: #ACACAC;"/><path d="M0 0 C1.423125 0.2784375 1.423125 0.2784375 2.875 0.5625 C5.89868793 1.28686632 5.89868793 1.28686632 8 0 C8.185625 0.7425 8.37125 1.485 8.5625 2.25 C10.10534665 5.20153271 10.74512145 5.63548429 13.5625 7.125 C17 9 17 9 18 12 C13.61999924 11.49942848 11.15830185 10.06806466 8 7 C8 6.01 8 5.02 8 4 C5.36 4.33 2.72 4.66 0 5 C0 3.35 0 1.7 0 0 Z " transform="translate(17,20)" style="fill: #D4D4D4;"/><path d="M0 0 C0 1.98 0 3.96 0 6 C-4.1196377 7.29243536 -7.66831683 8.26252625 -12 8 C-12 6.35 -12 4.7 -12 3 C-11.37351562 2.95101562 -10.74703125 2.90203125 -10.1015625 2.8515625 C-9.28429687 2.77679688 -8.46703125 2.70203125 -7.625 2.625 C-6.81289062 2.55539063 -6.00078125 2.48578125 -5.1640625 2.4140625 C-2.87672234 1.97641258 -2.02617793 0 0 0 Z " transform="translate(21,31)" style="fill: #2563BC;"/><path d="M0 0 C0 1.32 0 2.64 0 4 C-5.59088879 3.23760607 -5.59088879 3.23760607 -7.7890625 1.9609375 C-10.82288165 0.64235179 -13.33621152 0.88121757 -16.625 1 C-20.1015625 1.125 -20.1015625 1.125 -23 1 C-23.66 0.34 -24.32 -0.32 -25 -1 C-21.39670111 -1.22573595 -17.79245301 -1.42759125 -14.1875 -1.625 C-12.65125977 -1.72167969 -12.65125977 -1.72167969 -11.08398438 -1.8203125 C-10.10107422 -1.871875 -9.11816406 -1.9234375 -8.10546875 -1.9765625 C-7.19949951 -2.02893066 -6.29353027 -2.08129883 -5.36010742 -2.13525391 C-3 -2 -3 -2 0 0 Z " transform="translate(41,7)" style="fill: #C2C4C8;"/><path d="M0 0 C0.33 0.99 0.66 1.98 1 3 C1.78375 3.103125 2.5675 3.20625 3.375 3.3125 C6 4 6 4 8 7 C6.7260411 9.03833424 5.38938077 11.03852126 4 13 C3.34 13 2.68 13 2 13 C1.67 10.03 1.34 7.06 1 4 C0.34 4 -0.32 4 -1 4 C-0.67 2.68 -0.34 1.36 0 0 Z " transform="translate(23,25)" style="fill: #292929;"/><path d="M0 0 C2.97 0.495 2.97 0.495 6 1 C5.34 3.31 4.68 5.62 4 8 C5.32 8.66 6.64 9.32 8 10 C8 11.65 8 13.3 8 15 C7.34 15 6.68 15 6 15 C5.938125 14.443125 5.87625 13.88625 5.8125 13.3125 C5.10658914 10.7283077 5.10658914 10.7283077 2.4375 8.625 C0 6 0 6 -0.3125 2.6875 C-0.209375 1.800625 -0.10625 0.91375 0 0 Z " transform="translate(8,9)" style="fill: #303132;"/><path d="M0 0 C8.25 0 16.5 0 25 0 C24.67 0.99 24.34 1.98 24 3 C23.01 3 22.02 3 21 3 C21 2.34 21 1.68 21 1 C15.39 1 9.78 1 4 1 C4.33 1.99 4.66 2.98 5 4 C2.525 3.01 2.525 3.01 0 2 C0 1.34 0 0.68 0 0 Z " transform="translate(13,44)" style="fill: #C0C3CD;"/><path d="M0 0 C2.97 0 5.94 0 9 0 C8.67 1.32 8.34 2.64 8 4 C4.7 4 1.4 4 -2 4 C-1.34 2.68 -0.68 1.36 0 0 Z " transform="translate(12,28)" style="fill: #ABBDDC;"/><path d="M0 0 C0.99966797 0.30744141 0.99966797 0.30744141 2.01953125 0.62109375 C8.69421053 2.57215385 15.06116975 3.61078128 22 4 C19.58183552 6.41816448 18.83173174 6.34788063 15.5 6.4375 C9.49533784 6.35872163 5.07457706 4.02315229 0 1 C0 0.67 0 0.34 0 0 Z " transform="translate(10,45)" style="fill: #737479;"/><path d="M0 0 C-0.33 0.66 -0.66 1.32 -1 2 C-6.13859499 3.65480178 -9.6586362 4.33534095 -15 3 C-11.05379954 -0.94620046 -5.19016931 -1.62192791 0 0 Z " transform="translate(24,38)" style="fill: #98999B;"/><path d="M0 0 C0 0.33 0 0.66 0 1 C-7.59 1.33 -15.18 1.66 -23 2 C-23 1.67 -23 1.34 -23 1 C-14.8731469 -2.4121776 -8.5098969 -1.8540371 0 0 Z " transform="translate(39,41)" style="fill: #979BA8;"/><path d="M0 0 C0.66 0 1.32 0 2 0 C2 0.66 2 1.32 2 2 C3.66289062 1.89171875 3.66289062 1.89171875 5.359375 1.78125 C6.82291241 1.6874335 8.28645431 1.59368718 9.75 1.5 C10.47960938 1.45230469 11.20921875 1.40460937 11.9609375 1.35546875 C15.31810164 1.14183103 18.63436276 1 22 1 C22.33 1.66 22.66 2.32 23 3 C14.75 3 6.5 3 -2 3 C-1.34 2.01 -0.68 1.02 0 0 Z " transform="translate(15,3)" style="fill: #D9DADD;"/><path d="M0 0 C0.33 0 0.66 0 1 0 C1.125 2.875 1.125 2.875 1 6 C-1.58787727 8.58787727 -3.42007861 8.62709152 -7 9 C-7.66 8.67 -8.32 8.34 -9 8 C-8.67 6.68 -8.34 5.36 -8 4 C-5.36 4.33 -2.72 4.66 0 5 C0 3.35 0 1.7 0 0 Z " transform="translate(46,31)" style="fill: #1E1E1F;"/><path d="M0 0 C2.0625 0.4375 2.0625 0.4375 4 1 C3.67 2.98 3.34 4.96 3 7 C1.35 6.67 -0.3 6.34 -2 6 C-1.125 1.125 -1.125 1.125 0 0 Z " transform="translate(39,22)" style="fill: #A8CDF4;"/><path d="M0 0 C4.29 0.66 8.58 1.32 13 2 C13 2.99 13 3.98 13 5 C7.32723489 5.29341888 4.00932754 5.00559652 -1 2 C-0.67 1.34 -0.34 0.68 0 0 Z " transform="translate(32,12)" style="fill: #5D5D5D;"/><path d="M0 0 C4.20626034 1.50223584 5.73900021 4.28550034 8 8 C5.36 7.67 2.72 7.34 0 7 C0 4.69 0 2.38 0 0 Z " transform="translate(40,5)" style="fill: #575960;"/><path d="M0 0 C1.65 0.33 3.3 0.66 5 1 C5.1953125 7.0546875 5.1953125 7.0546875 5 9 C3 11 3 11 0.375 11.125 C-0.40875 11.08375 -1.1925 11.0425 -2 11 C-1.34 10.46375 -0.68 9.9275 0 9.375 C2.31024799 7.10041408 2.31024799 7.10041408 2.25 3.75 C2.1675 2.8425 2.085 1.935 2 1 C1.34 0.67 0.68 0.34 0 0 Z " transform="translate(40,20)" style="fill: #2B2D2F;"/><path d="M0 0 C0.99 0.33 1.98 0.66 3 1 C3.33 3.31 3.66 5.62 4 8 C4.99 8.33 5.98 8.66 7 9 C4 10 4 10 1.8125 9 C0 7 0 7 -0.25 3.3125 C-0.1675 2.219375 -0.085 1.12625 0 0 Z " transform="translate(21,30)" style="fill: #5D5F63;"/><path d="M0 0 C7.625 0.875 7.625 0.875 11 2 C11 2.66 11 3.32 11 4 C6.45194365 4.17835515 3.1205746 3.99785435 -1 2 C-0.67 1.34 -0.34 0.68 0 0 Z " transform="translate(32,10)" style="fill: #070707;"/><path d="M0 0 C0.66 0 1.32 0 2 0 C2 0.66 2 1.32 2 2 C4.31 2.66 6.62 3.32 9 4 C9.33 6.64 9.66 9.28 10 12 C7.7522025 9.94766315 6.9977758 8.99332739 6 6 C5.175 5.690625 4.35 5.38125 3.5 5.0625 C2.675 4.711875 1.85 4.36125 1 4 C0.1875 1.875 0.1875 1.875 0 0 Z " transform="translate(26,18)" style="fill: #B8B9B8;"/><path d="M0 0 C2.64 0.33 5.28 0.66 8 1 C6.02 3.31 4.04 5.62 2 8 C1.67 7.01 1.34 6.02 1 5 C-0.65 4.67 -2.3 4.34 -4 4 C-1.50907189 2.75453595 -0.58919267 3.2232422 2 4 C2 3.34 2 2.68 2 2 C1.34 2 0.68 2 0 2 C0 1.34 0 0.68 0 0 Z " transform="translate(34,17)" style="fill: #E2E2E2;"/><path d="M0 0 C2.97 0.495 2.97 0.495 6 1 C6.33 1.99 6.66 2.98 7 4 C4.69 4.33 2.38 4.66 0 5 C0 3.35 0 1.7 0 0 Z " transform="translate(17,20)" style="fill: #ACACAC;"/><path d="M0 0 C5.61 0 11.22 0 17 0 C17 0.99 17 1.98 17 3 C16.21882813 2.76990234 16.21882813 2.76990234 15.421875 2.53515625 C12.36721485 1.86017489 9.36984029 1.65588882 6.25 1.4375 C5.07953125 1.35371094 3.9090625 1.26992188 2.703125 1.18359375 C1.81109375 1.12300781 0.9190625 1.06242187 0 1 C0 0.67 0 0.34 0 0 Z " transform="translate(17,45)" style="fill: #CBCED6;"/><path d="M0 0 C1.32 1.32 2.64 2.64 4 4 C2.625 6.5 2.625 6.5 1 9 C0.34 9 -0.32 9 -1 9 C-0.67 6.03 -0.34 3.06 0 0 Z " transform="translate(27,28)" style="fill: #717171;"/><path d="M0 0 C1.60080151 4.00200378 0.29279692 7.04556236 -1 11 C-1.33 11 -1.66 11 -2 11 C-2 7.7 -2 4.4 -2 1 C-1.34 0.67 -0.68 0.34 0 0 Z " transform="translate(50,26)" style="fill: #65686F;"/><path d="M0 0 C0.99 0.66 1.98 1.32 3 2 C1.02 2.99 1.02 2.99 -1 4 C-1 5.32 -1 6.64 -1 8 C-0.01 8.66 0.98 9.32 2 10 C0.0625 10.5625 0.0625 10.5625 -2 11 C-3 10 -3 10 -3.25 6.625 C-3 3 -3 3 -1.5 1.0625 C-1.005 0.711875 -0.51 0.36125 0 0 Z " transform="translate(39,20)" style="fill: #5E646A;"/><path d="M0 0 C0.33 1.32 0.66 2.64 1 4 C-4.75 3.25 -4.75 3.25 -7 1 C-3.535 0.505 -3.535 0.505 0 0 Z " transform="translate(40,7)" style="fill: #96989F;"/><path d="M0 0 C0 1.98 0 3.96 0 6 C-1.32 6 -2.64 6 -4 6 C-2.8 0 -2.8 0 0 0 Z " transform="translate(21,31)" style="fill: #0542AE;"/><path d="M0 0 C-0.66 1.98 -1.32 3.96 -2 6 C-2.99 5.67 -3.98 5.34 -5 5 C-5 4.01 -5 3.02 -5 2 C-2 0 -2 0 0 0 Z " transform="translate(15,2)" style="fill: #737478;"/></svg>